<mxfile host="Electron" agent="Mozilla/5.0 (Windows NT 10.0; Win64; x64) AppleWebKit/537.36 (KHTML, like Gecko) draw.io/26.1.1 Chrome/132.0.6834.210 Electron/34.3.3 Safari/537.36" version="26.1.1">
  <diagram name="Page-1" id="Diwe6MQEB6labhhvOnik">
    <mxGraphModel dx="1540" dy="1288" grid="1" gridSize="10" guides="1" tooltips="1" connect="1" arrows="1" fold="1" page="1" pageScale="1" pageWidth="827" pageHeight="1169" math="0" shadow="0">
      <root>
        <mxCell id="0" />
        <mxCell id="1" parent="0" />
        <mxCell id="NIzT2Vdednr3TIZ3x_x6-1" value="" style="rounded=0;whiteSpace=wrap;html=1;" vertex="1" parent="1">
          <mxGeometry x="100" y="240" width="800" height="1210" as="geometry" />
        </mxCell>
        <mxCell id="NIzT2Vdednr3TIZ3x_x6-2" value="Syllabus Chatbot System" style="text;html=1;align=center;verticalAlign=middle;resizable=0;points=[];autosize=1;strokeColor=none;fillColor=none;" vertex="1" parent="1">
          <mxGeometry x="140" y="210" width="160" height="30" as="geometry" />
        </mxCell>
        <mxCell id="NIzT2Vdednr3TIZ3x_x6-3" value="PROFESSOR" style="shape=umlActor;verticalLabelPosition=bottom;verticalAlign=top;html=1;outlineConnect=0;" vertex="1" parent="1">
          <mxGeometry x="190" y="760" width="30" height="60" as="geometry" />
        </mxCell>
        <mxCell id="NIzT2Vdednr3TIZ3x_x6-4" value="STUDENT" style="shape=umlActor;verticalLabelPosition=bottom;verticalAlign=top;html=1;outlineConnect=0;" vertex="1" parent="1">
          <mxGeometry x="797" y="760" width="30" height="60" as="geometry" />
        </mxCell>
        <mxCell id="NIzT2Vdednr3TIZ3x_x6-5" value="LOGIN" style="ellipse;whiteSpace=wrap;html=1;" vertex="1" parent="1">
          <mxGeometry x="430" y="320" width="120" height="80" as="geometry" />
        </mxCell>
        <mxCell id="NIzT2Vdednr3TIZ3x_x6-13" style="edgeStyle=orthogonalEdgeStyle;rounded=0;orthogonalLoop=1;jettySize=auto;html=1;" edge="1" parent="1" source="NIzT2Vdednr3TIZ3x_x6-6" target="NIzT2Vdednr3TIZ3x_x6-7">
          <mxGeometry relative="1" as="geometry" />
        </mxCell>
        <mxCell id="NIzT2Vdednr3TIZ3x_x6-6" value="UPLOAD&lt;div&gt;SYLLABUS&amp;nbsp;&lt;/div&gt;&lt;div&gt;PDF&lt;/div&gt;" style="ellipse;whiteSpace=wrap;html=1;" vertex="1" parent="1">
          <mxGeometry x="430" y="504.5" width="120" height="80" as="geometry" />
        </mxCell>
        <mxCell id="NIzT2Vdednr3TIZ3x_x6-7" value="ENTER METADATA&lt;div&gt;(DPT, COURSE #)&lt;/div&gt;" style="ellipse;whiteSpace=wrap;html=1;" vertex="1" parent="1">
          <mxGeometry x="430" y="690" width="120" height="80" as="geometry" />
        </mxCell>
        <mxCell id="NIzT2Vdednr3TIZ3x_x6-18" style="edgeStyle=orthogonalEdgeStyle;rounded=0;orthogonalLoop=1;jettySize=auto;html=1;" edge="1" parent="1" source="NIzT2Vdednr3TIZ3x_x6-8" target="NIzT2Vdednr3TIZ3x_x6-9">
          <mxGeometry relative="1" as="geometry" />
        </mxCell>
        <mxCell id="NIzT2Vdednr3TIZ3x_x6-8" value="SEARCH&lt;div&gt;COURSE&lt;/div&gt;" style="ellipse;whiteSpace=wrap;html=1;" vertex="1" parent="1">
          <mxGeometry x="430" y="880" width="120" height="80" as="geometry" />
        </mxCell>
        <mxCell id="NIzT2Vdednr3TIZ3x_x6-19" style="edgeStyle=orthogonalEdgeStyle;rounded=0;orthogonalLoop=1;jettySize=auto;html=1;" edge="1" parent="1" source="NIzT2Vdednr3TIZ3x_x6-9" target="NIzT2Vdednr3TIZ3x_x6-10">
          <mxGeometry relative="1" as="geometry" />
        </mxCell>
        <mxCell id="NIzT2Vdednr3TIZ3x_x6-9" value="ASK NATURAL&lt;div&gt;LANGUAGE&lt;/div&gt;&lt;div&gt;QUESTIONS&lt;/div&gt;" style="ellipse;whiteSpace=wrap;html=1;" vertex="1" parent="1">
          <mxGeometry x="430" y="1070" width="120" height="80" as="geometry" />
        </mxCell>
        <mxCell id="NIzT2Vdednr3TIZ3x_x6-22" style="edgeStyle=orthogonalEdgeStyle;rounded=0;orthogonalLoop=1;jettySize=auto;html=1;" edge="1" parent="1" source="NIzT2Vdednr3TIZ3x_x6-10">
          <mxGeometry relative="1" as="geometry">
            <mxPoint x="960" y="1300" as="targetPoint" />
          </mxGeometry>
        </mxCell>
        <mxCell id="NIzT2Vdednr3TIZ3x_x6-10" value="VIEW RESPONSE&lt;div&gt;FROM LLM&lt;/div&gt;" style="ellipse;whiteSpace=wrap;html=1;" vertex="1" parent="1">
          <mxGeometry x="430" y="1260" width="120" height="80" as="geometry" />
        </mxCell>
        <mxCell id="NIzT2Vdednr3TIZ3x_x6-11" value="" style="endArrow=none;html=1;rounded=0;entryX=0;entryY=0.5;entryDx=0;entryDy=0;" edge="1" parent="1" target="NIzT2Vdednr3TIZ3x_x6-5">
          <mxGeometry width="50" height="50" relative="1" as="geometry">
            <mxPoint x="220" y="780" as="sourcePoint" />
            <mxPoint x="270" y="730" as="targetPoint" />
          </mxGeometry>
        </mxCell>
        <mxCell id="NIzT2Vdednr3TIZ3x_x6-12" value="" style="endArrow=none;html=1;rounded=0;entryX=0;entryY=0.5;entryDx=0;entryDy=0;" edge="1" parent="1" target="NIzT2Vdednr3TIZ3x_x6-6">
          <mxGeometry width="50" height="50" relative="1" as="geometry">
            <mxPoint x="220" y="780" as="sourcePoint" />
            <mxPoint x="440" y="370" as="targetPoint" />
          </mxGeometry>
        </mxCell>
        <mxCell id="NIzT2Vdednr3TIZ3x_x6-14" value="" style="endArrow=none;html=1;rounded=0;entryX=0;entryY=0.5;entryDx=0;entryDy=0;" edge="1" parent="1" target="NIzT2Vdednr3TIZ3x_x6-7">
          <mxGeometry width="50" height="50" relative="1" as="geometry">
            <mxPoint x="220" y="780" as="sourcePoint" />
            <mxPoint x="440" y="555" as="targetPoint" />
          </mxGeometry>
        </mxCell>
        <mxCell id="NIzT2Vdednr3TIZ3x_x6-15" value="" style="endArrow=none;html=1;rounded=0;entryX=1;entryY=0.5;entryDx=0;entryDy=0;exitX=0;exitY=0.3333333333333333;exitDx=0;exitDy=0;exitPerimeter=0;" edge="1" parent="1" source="NIzT2Vdednr3TIZ3x_x6-4" target="NIzT2Vdednr3TIZ3x_x6-5">
          <mxGeometry width="50" height="50" relative="1" as="geometry">
            <mxPoint x="630" y="900" as="sourcePoint" />
            <mxPoint x="840" y="480" as="targetPoint" />
          </mxGeometry>
        </mxCell>
        <mxCell id="NIzT2Vdednr3TIZ3x_x6-17" value="" style="endArrow=none;html=1;rounded=0;exitX=0.973;exitY=0.366;exitDx=0;exitDy=0;exitPerimeter=0;entryX=0;entryY=0.3333333333333333;entryDx=0;entryDy=0;entryPerimeter=0;" edge="1" parent="1" source="NIzT2Vdednr3TIZ3x_x6-8" target="NIzT2Vdednr3TIZ3x_x6-4">
          <mxGeometry width="50" height="50" relative="1" as="geometry">
            <mxPoint x="790" y="970" as="sourcePoint" />
            <mxPoint x="840" y="920" as="targetPoint" />
          </mxGeometry>
        </mxCell>
        <mxCell id="NIzT2Vdednr3TIZ3x_x6-20" value="" style="endArrow=none;html=1;rounded=0;exitX=1;exitY=0.5;exitDx=0;exitDy=0;" edge="1" parent="1" source="NIzT2Vdednr3TIZ3x_x6-9">
          <mxGeometry width="50" height="50" relative="1" as="geometry">
            <mxPoint x="557" y="919" as="sourcePoint" />
            <mxPoint x="800" y="780" as="targetPoint" />
          </mxGeometry>
        </mxCell>
        <mxCell id="NIzT2Vdednr3TIZ3x_x6-23" value="LLM API" style="shape=umlActor;verticalLabelPosition=bottom;verticalAlign=top;html=1;outlineConnect=0;" vertex="1" parent="1">
          <mxGeometry x="990" y="1270" width="30" height="60" as="geometry" />
        </mxCell>
      </root>
    </mxGraphModel>
  </diagram>
</mxfile>
